<?xml version="1.0" encoding="UTF-8"?>
<svg id="Layer_1" data-name="Layer 1" xmlns="http://www.w3.org/2000/svg" viewBox="0 0 45.01 37.14">
  <defs>
    <style>
      .cls-1 {
        fill: #3542d6;
      }

      .cls-2 {
        fill: #ff5a36;
      }
    </style>
  </defs>
  <g>
    <path class="cls-1" d="M25.35,2.22s.04-.09.06-.13c.21-.36,1.23-1.92,3.15-2.08,1.61-.13,3.19.79,3.94,2.32l12.31,30.17s.03.08.04.12c.51,1.7-.21,3.46-1.52,4.17-1.64.89-4.08.06-4.92-2.09-3.01-7.32-6.02-14.63-9.03-21.95-.35-.86-1.55-.9-1.96-.07-.95,1.91-1.91,3.83-2.86,5.74-.51,1.02-2.05.66-2.05-.48v-8.63c0-.14.03-.28.08-.41l2.76-6.69Z"/>
    <path class="cls-1" d="M19.67,2.22s-.04-.09-.06-.13c-.21-.36-1.23-1.92-3.15-2.08-1.61-.13-3.19.79-3.94,2.32L.21,32.5s-.03.08-.04.12c-.51,1.7.21,3.46,1.52,4.17,1.64.89,4.08.06,4.92-2.09,3.01-7.32,6.02-14.63,9.03-21.95.35-.86,1.55-.9,1.96-.07.95,1.91,1.91,3.83,2.86,5.74.51,1.02,2.05.66,2.05-.48v-8.63c0-.14-.03-.28-.08-.41l-2.76-6.69Z"/>
  </g>
  <g>
    <path class="cls-2" d="M22.5,12.17l-7.07,15.96c-.64,1.44,1.32,2.59,2.26,1.33l4.81-6.36v-10.93Z"/>
    <path class="cls-2" d="M22.51,12.17l7.07,15.96c.64,1.44-1.32,2.59-2.26,1.33l-4.81-6.36v-10.93Z"/>
  </g>
</svg>